<svg version="1" xmlns="http://www.w3.org/2000/svg" width="426.667" height="426.667" viewBox="0 0 320.000000 320.000000"><path d="M58.9 62.5c-.1.8-.1 2.6-.1 4 0 7-.7 6.5 9.7 6.5H78v52h14V73h9.4c10.6 0 10.4.1 9.7-7.7l-.3-4.3H84.9c-22.3 0-25.9.2-26 1.5zM114 93v32h48.5l.2-6 .1-6H128V97h31V86h-31V73h34V61h-48v32zM167 93v32.1l17.1-.1c19.6-.2 23.4-1.1 30.2-7 6.9-6.1 9.1-12.2 9.1-25s-2.2-18.9-9.2-25c-6.6-5.9-11.6-7-30.9-7H167v32zm33.9-17.7c6.4 3.1 8.6 7.8 8.6 18.2 0 9.1-1.8 13.5-7.3 17.1-2.5 1.7-4.8 2.2-12.2 2.3l-9 .2V73h7.8c5.9.1 8.7.6 12.1 2.3zM234.4 68.8l5.5 7.9-6 8.6L228 94h5.3c5.3 0 5.3 0 8.2-5 3.3-5.4 4.1-5.9 5-3.3.3 1 1.8 3.3 3.3 5.1 2.5 3 3.2 3.3 7.5 3l4.8-.3-6-8.6-6-8.6 5.3-7.4 5.4-7.4-4.5-.3c-4.9-.3-6.7.6-8.9 5-.8 1.5-1.8 2.8-2.2 2.8-.5 0-1.8-1.8-3.1-4-2.2-3.9-2.4-4-7.7-4H229l5.4 7.8zM59 165v29h7v-46.5l15.3 23.2L96.5 194h8.5v-58h-7l-.2 23.2-.3 23.2-14.4-21.9c-7.9-12.1-14.6-22.5-14.8-23.2-.3-.8-2.3-1.3-4.9-1.3H59v29zM107.8 137.7c-1 3.8.1 4.3 9.8 4.3h9.4v52h8v-52h9.4c9.2 0 9.4-.1 9.8-2.5.3-1.3.3-2.7 0-3-.3-.3-10.8-.5-23.3-.5-20.7 0-22.7.1-23.1 1.7zM158.2 158.9l.3 22.9 3 4.3c4.5 6.4 9.2 8.4 19.5 8.4s15-2 19.5-8.4l3-4.3.3-22.9.3-22.9H196v19.7c0 21.2-.7 25.9-4.5 29.7-2.8 2.8-9.5 4.2-14.4 3.1-4.5-1-8.9-5-10.1-9.3-.5-2-1-12.6-1-23.5V136h-8.1l.3 22.9zM227.5 139.6c-.8 2-1.5 3.8-1.5 4 0 .3-11 28.6-16.1 41.3-1.6 4-2.9 7.7-2.9 8.2 0 .5 1.7.9 3.8.9h3.7l3-8.8 3.1-8.7h24.9l3 8.7 3 8.8h4.3c3.1 0 4.3-.4 3.9-1.3-.3-.6-2.8-7.3-5.7-14.7-2.8-7.4-5.8-14.9-6.5-16.5-.7-1.7-3.2-8.1-5.6-14.2l-4.4-11.3h-4.2c-4 0-4.4.3-5.8 3.6zm11.5 19.6l3.9 10.8h-10c-6.1 0-9.8-.4-9.4-1 .3-.5 2.3-5.9 4.5-12s4.3-11.6 4.6-12.2c.8-1.3.7-1.4 6.4 14.4zM96 216c0 .5.5 1 1 1 .6 0 1-.5 1-1 0-.6-.4-1-1-1-.5 0-1 .4-1 1zM119 217.9c0 2.5-.3 2.8-2.5 2.3-5.3-1-8.8 6.5-4.7 10.1 1 .9 3.3 1.5 5.5 1.4l3.7-.1v-8.3c0-4.9-.4-8.3-1-8.3-.5 0-1 1.3-1 2.9zm-1.6 4.7c.9.3 1.6 1.6 1.6 2.8 0 4.6-5.3 6.4-6.4 2.2-1.1-4.6.8-6.5 4.8-5zM180 217.8c0 2.6-.3 2.8-2.9 2.4-5.1-.7-8.2 6.6-4.3 10.1 2.2 2 5.8 2.2 6.5.4.4-1 .6-1 .6 0 .1.7.6 1.3 1.1 1.3.6 0 1-3.5 1-8.5s-.4-8.5-1-8.5c-.5 0-1 1.3-1 2.8zm-.6 6.9c.9 3.5-1.6 6.3-4.2 4.7-2.2-1.4-2.7-4.1-1.2-5.9 2-2.4 4.7-1.8 5.4 1.2zM215 223.5c0 5 .4 8.5 1 8.5s1-2.1 1-4.8v-4.7l2 4.4c2.1 4.6 1.9 8.1-.6 8.1-.8 0-1.4.4-1.4 1 0 .5.9 1 1.9 1 1.2 0 2.6-1.5 4-4.5 1.2-2.5 2.1-5 2.1-5.5 0-.6.7-2.4 1.5-4 1.3-2.5 1.3-3 .2-3-.8 0-2 1.9-2.7 4.5-.7 2.4-1.6 4.3-1.9 4-.4-.2-1.3-2.2-2.1-4.4-.7-2.3-1.7-4.1-2.2-4.1-.4 0-.8-1.1-.8-2.5s-.4-2.5-1-2.5-1 3.5-1 8.5zM208 217.9c0 1.1-.6 2.2-1.2 2.5-1 .5-1 .7 0 1.2.7.3 1.2 2.4 1.2 5 0 4.7 2 6.8 4.3 4.5.8-.8.7-1.1-.6-1.1-2.5 0-2.5-8 .1-8 1.6-.1 1.6-.1 0-1.4-1-.7-1.8-2.1-1.8-3 0-.9-.4-1.6-1-1.6-.5 0-1 .9-1 1.9zM61.9 222.6l2 2.6-2.1 2.9c-2.7 3.5-1.4 5.3 1.3 1.9l1.9-2.5 2 2.3c1.1 1.3 2.5 2.2 3.1 2 .7-.2.1-1.6-1.4-3.4l-2.6-3.1 2-2.2c1.2-1.2 1.8-2.5 1.4-2.9-.4-.4-1.5.3-2.5 1.6-1.9 2.3-1.9 2.3-3.2.3-.7-1.2-1.9-2.1-2.6-2.1-.9 0-.7.8.7 2.6zM96 226c0 3.3.4 6 1 6s1-2.7 1-6-.4-6-1-6-1 2.7-1 6zM100 226.1c0 3.3.4 5.9 1 5.9s1-1.7 1-3.8c0-4.5 1.3-6.7 3.4-5.9 1.1.5 1.6 1.9 1.6 5.2 0 2.5.5 4.5 1 4.5 1.1 0 1.4-10.9.3-11.1-.5-.1-2.5-.3-4.5-.4l-3.8-.2v5.8zM124.7 221.8c-5 5.5 2.6 13.8 7.8 8.6 2.1-2.1 1.3-2.9-1.5-1.4-1.1.6-3 .8-4 .5-3.5-1.1-2.1-2.5 2.5-2.5 4.9 0 5.6-1 2.9-4.8-1.8-2.7-5.5-2.9-7.7-.4zm5.7.8c2.8 1.1 1.7 2.4-1.9 2.4-2.6 0-3.3-.3-2.9-1.5.6-1.6 2.2-1.9 4.8-.9zM136 228.7c0 4.9.4 8.3 1 8.3s1-1.3 1-2.9c0-2.5.3-2.8 2.5-2.3 1.6.3 3.3-.2 4.5-1.3 1.9-1.7 2.1-1.7 3.8-.2 2.4 2.1 5.6 2.2 7.7.1 2.1-2.2 1.3-2.7-1.8-1.3-2.7 1.2-5.7.7-5.7-1.1 0-.5 2-1 4.5-1 4.9 0 5.6-1 2.9-4.8-1.9-2.7-5.8-2.9-7.7-.2-1.4 2-1.4 2-3.1.1-1.3-1.4-3-1.9-5.7-1.8l-3.9.1v8.3zm8-5.2c2 2.4.4 6.5-2.5 6.5-1.8 0-2.6-.7-3.1-2.5-.7-2.7.9-5.5 3.1-5.5.7 0 1.8.7 2.5 1.5zm10.4-.9c2.8 1.1 1.7 2.4-2 2.4-3.1 0-3.5-.2-2.4-1.5 1.4-1.7 2.1-1.8 4.4-.9zM160 226c0 7.1 1.6 8 2.2 1.2.5-5.1.1-7.2-1.3-7.2-.5 0-.9 2.7-.9 6zM163 220.9c0 .5.9 1.1 2 1.4 1.6.4 2 1.4 2 5.1 0 2.5.5 4.6 1 4.6.6 0 1-2.4 1-5.4 0-4-.4-5.5-1.6-6-2.3-.9-4.4-.7-4.4.3zM184.7 221.8c-1 1-1.7 3-1.7 4.4 0 4.8 6.2 7.7 9.1 4.2 4.8-5.8-2.4-14.1-7.4-8.6zm6.3 1.7c1.1 1.3.7 1.5-2.3 1.5-2.8 0-3.5-.3-3.1-1.5.4-.8 1.4-1.5 2.4-1.5s2.3.7 3 1.5zm1 4.4c0 1.3-3.4 2.3-5.4 1.5-2.8-1.1-1.8-2.4 1.9-2.4 1.9 0 3.5.4 3.5.9zM196 226.1c0 3.3.4 5.9 1 5.9s1-1.7 1-3.8c0-4.5 1.3-6.7 3.4-5.9 1.1.5 1.6 1.9 1.6 5.2 0 2.5.5 4.5 1 4.5 1.1 0 1.4-10.9.3-11.1-.5-.1-2.5-.3-4.5-.4l-3.8-.2v5.8zM76 223c0 .6 2.6 1 5.9 1 3.3 0 6.3-.5 6.6-1 .4-.6-1.8-1-5.9-1-3.7 0-6.6.4-6.6 1zM76 228c0 .6 2.7 1 6 1s6-.4 6-1-2.7-1-6-1-6 .4-6 1zM117 238c0 .5.5 1 1 1 .6 0 1-.5 1-1 0-.6-.4-1-1-1-.5 0-1 .4-1 1zM151 239.9c0 2.5-.3 2.8-2.5 2.3-5.3-1-8.8 6.4-4.7 10.1 2.2 2 5.8 2.2 6.5.4.4-1 .6-1 .6 0 .1.7.6 1.3 1.1 1.3.6 0 1-3.5 1-8.5s-.4-8.5-1-8.5c-.5 0-1 1.3-1 2.9zm-1.2 5.3c1.7 1.7 1.5 4.3-.4 5.9-3.1 2.6-7-2.5-4.4-5.6 1.5-1.8 3.2-1.9 4.8-.3zM159 238c0 .5 1.4 1 3 1h3v7.5c0 4.3.4 7.5 1 7.5s1-3.2 1-7.5V239h3c1.7 0 3-.5 3-1 0-.6-3-1-7-1s-7 .4-7 1zM174 245.5v8.5h6.1c3.7 0 5.8-.4 5.4-1-.3-.6-2.6-1-5.1-1-4.2 0-4.4-.1-4.4-3s.2-3 4.5-3c2.5 0 4.5-.5 4.5-1 0-.6-2-1-4.5-1-4.1 0-4.5-.2-4.5-2.5s.4-2.5 4.4-2.5c2.5 0 4.8-.5 5.1-1 .4-.6-1.7-1-5.4-1H174v8.5zM187 245.5v8.5h4.8c5.8 0 8.1-2 8.9-7.7.4-2.9 0-4.4-1.7-6.6-1.8-2.3-2.9-2.7-7.1-2.7H187v8.5zm10.2-4.8c2.2 2 2.3 7 .1 9.5-.9 1-3 1.8-5 1.8H189v-13h3.2c1.7 0 4 .7 5 1.7zM255 239.9c0 1.1-.6 2.2-1.2 2.5-1 .5-1 .7 0 1.2.7.3 1.2 2.4 1.2 5 0 4.7 2 6.8 4.3 4.5.8-.8.7-1.1-.6-1.1-2.4 0-2.4-6.8.1-8.6 1.6-1.3 1.6-1.3 0-1.4-1.1 0-1.8-.8-1.8-2 0-1.1-.4-2-1-2-.5 0-1 .9-1 1.9zM61.5 244c-1.3 1.4-1.6 2.8-1.1 5.4.6 3 1.2 3.6 4.2 4.2 6.1 1.1 9.5-4.2 5.8-9.4-1.9-2.8-6.4-2.9-8.9-.2zm6.9 1.3c2.1 1.6 1.8 4.5-.6 6.1-3.5 2.2-7.4-2.7-4.8-5.9 1.5-1.8 3.1-1.9 5.4-.2zM73 248c0 3.3.4 6 1 6s1-1.8 1-3.9c0-3.1.6-4.4 2.8-6 1.8-1.3 2.2-2 1.2-2.1-.9 0-2.1.5-2.8 1.2-.9.9-1.2.9-1.2 0 0-.7-.4-1.2-1-1.2s-1 2.7-1 6zM80.6 243.9c-3.8 4.2-.3 11 5 9.7 2.9-.8 3 1 .1 2.8-1.2.8-2.3.7-3.8-.2-2.7-1.7-4-.5-1.5 1.4 2.7 1.9 6 1.8 7.9-.4 1.2-1.3 1.7-3.7 1.7-8.3v-6.5l-3.9-.1c-2.6-.1-4.4.4-5.5 1.6zm6.2 1.3c1.7 1.7 1.5 4.3-.4 5.9-3.1 2.6-7-2.5-4.4-5.6 1.5-1.8 3.2-1.9 4.8-.3zM93 243.9c-.6 1.2-.6 2.2-.1 2.5.5.3 1.2-.1 1.5-1 .3-.9 1.5-1.4 2.8-1.2 3.6.5 3.1 2.4-.9 3.4-2.8.7-3.9 1.5-4.1 3.1-.4 2.4-.1 2.5 6.4 2.8l4.1.1-.5-5.1c-.3-2.7-1-5.3-1.6-5.7-2.2-1.5-6.5-.8-7.6 1.1zm7 4.6c0 1.9-1.7 3.5-3.6 3.5-2.5 0-3.1-.9-1.4-2.6.9-.9 5-1.7 5-.9zM105 248.2c0 3.2.4 5.8 1 5.8s1-1.7 1-3.9c0-3.9 2-6.8 4-5.6.5.3 1 2.6 1 5.1 0 2.4.5 4.4 1 4.4 1.1 0 1.3-8.9.2-10.7-.4-.6-2.4-1.1-4.5-1l-3.7.1v5.8zM117 248v6h6c3.3 0 6-.4 6-1s-1.9-1-4.2-1c-3.6-.1-4-.3-2.8-1.3.9-.7 2.9-2.9 4.4-5l2.8-3.7H117v6zm8-3.2c0 .5-1.3 2.1-3 3.7l-3 2.9v-3.7c0-3.4.2-3.7 3-3.7 1.7 0 3 .4 3 .8zM131.7 243.8c-5 5.5 2.6 13.8 7.8 8.6 1.9-2 1.2-3.2-1-1.4-.8.7-2.5 1-4 .6-4.1-1-2.9-2.6 2-2.6s5.6-1 2.9-4.8c-1.8-2.7-5.5-2.9-7.7-.4zm5.7.8c2.8 1.1 1.7 2.4-1.9 2.4-2.6 0-3.3-.3-2.9-1.5.6-1.6 2.2-1.9 4.8-.9zM210 244c-3.7 3.7-1.4 10 3.8 10 3.3 0 5.1-2.5 4.7-6.6-.5-5.5-4.7-7.2-8.5-3.4zm6 1.5c1.1 1.3.7 1.5-2.5 1.5s-3.6-.2-2.5-1.5c.7-.8 1.8-1.5 2.5-1.5s1.8.7 2.5 1.5zm1 4.4c0 2.2-5.5 2.7-6.4.6-.4-1.2.3-1.5 2.9-1.5 1.9 0 3.5.4 3.5.9zM220.4 244.3c1.2 4.9 3.7 9.8 4.9 9.4 1.8-.6 5.8-11.7 4.2-11.7-.7 0-1.8 2-2.4 4.5-1.3 5.3-2.6 5.1-4.1-.5-.6-2.2-1.6-4-2.1-4-.7 0-.9 1-.5 2.3zM231.6 244.2c-.9 1.2-1.6 2.9-1.6 3.8 0 2.7 3 6 5.5 6 2.8 0 6.5-3.2 4.5-3.8-.7-.3-1.6.1-2 .8-.5.8-1.7 1-3.4.6-4.2-1-3-2.6 1.9-2.6s5.6-1 2.9-4.8c-.8-1.2-2.6-2.2-3.9-2.2-1.3 0-3.1 1-3.9 2.2zm6.4 1.3c1.1 1.3.7 1.5-2.4 1.5-3.5 0-4.9-1.3-2.3-2.3 2.2-.9 3.4-.7 4.7.8zM243 248c0 7.1 1.6 8 2.2 1.2.5-5.1.1-7.2-1.3-7.2-.5 0-.9 2.7-.9 6zM246 242.9c0 .5.9 1.1 2 1.4 1.6.4 2 1.4 2 5.1 0 2.5.5 4.6 1 4.6 1.4 0 1.2-9.4-.2-10.8-1.4-1.4-4.8-1.6-4.8-.3z"/></svg>